<svg xmlns="http://www.w3.org/2000/svg" xmlns:rdf="http://www.w3.org/1999/02/22-rdf-syntax-ns#" xmlns:dc="http://purl.org/dc/elements/1.1/" width="1031.61" height="554.9300000000001" viewBox="0 0 1031.61 554.9300000000001"><metadata>
        <rdf:rdf xmlns:rdf="http://www.w3.org/1999/02/22-rdf-syntax-ns#" xmlns:dc="http://purl.org/dc/elements/1.1/">
          <rdf:description>
            <dc:title>Human - Machine Collaboration (HMC)</dc:title>
            <dc:creator>Dubai Future Foundation</dc:creator>
            <dc:description>Combined icons representing human-machine collaboration levels and research functions</dc:description>
            <dc:date>2025-09-08T18:08:54.723Z</dc:date>
            <dc:format>image/svg+xml</dc:format>
          </rdf:description>
        </rdf:rdf>
      </metadata><g transform="translate(0,0) scale(1)">
  <defs xmlns="http://www.w3.org/2000/svg">
    
      .cls-1 {
        fill: #010101;
      }
    
  </defs>
  <path xmlns="http://www.w3.org/2000/svg" class="cls-1" d="M223.59,21.93c14.98,0,29.96,5.72,41.39,17.15l102.04,102.04c36.71,36.71,59.41,87.42,59.41,143.43,0,112.03-90.82,202.84-202.84,202.84S20.74,396.57,20.74,284.55c0-56.01,22.7-106.72,59.41-143.43l102.04-102.04c11.43-11.43,26.41-17.15,41.39-17.15M223.59,6.93c-19.64,0-38.11,7.65-52,21.54l-102.04,102.04c-20,20-35.71,43.3-46.68,69.24-11.36,26.87-17.13,55.4-17.13,84.8s5.76,57.93,17.13,84.8c10.97,25.94,26.68,49.24,46.68,69.24,20,20,43.3,35.71,69.24,46.68,26.87,11.36,55.4,17.13,84.8,17.13s57.93-5.76,84.8-17.13c25.94-10.97,49.24-26.68,69.24-46.68,20-20,35.71-43.3,46.68-69.24,11.36-26.87,17.13-55.4,17.13-84.8s-5.76-57.93-17.13-84.8c-10.97-25.94-26.68-49.24-46.68-69.24l-102.04-102.04c-13.89-13.89-32.36-21.54-52-21.54h0Z"/>
  <g xmlns="http://www.w3.org/2000/svg">
    <path class="cls-1" d="M109.35,325.74l6.36,10.88-19.36,22.34.06.1,28.71-6.34,6.36,10.88-35.14,20.53-4.23-7.23,24.9-14.55-.06-.1-29.94,5.94-3.48-5.96,19.62-23.02-.06-.1-24.66,14.41-4.23-7.23,35.14-20.53Z"/>
    <path class="cls-1" d="M149.58,378.35l7.41,5.42-11.75,41.83-7.5-5.49,2.87-9.13-12.28-8.99-7.93,5.43-7.31-5.35,36.5-23.72ZM134.15,397.99l8.51,6.23,4.68-15.08-.09-.07-13.1,8.92Z"/>
    <path class="cls-1" d="M199.81,415.88c.11-1.03.01-2.03-.29-2.99-.3-.96-.76-1.85-1.37-2.68-.61-.83-1.36-1.54-2.24-2.14-.88-.6-1.86-1.04-2.93-1.32-1.95-.5-3.7-.55-5.26-.15-1.56.4-2.92,1.13-4.1,2.18-1.17,1.05-2.16,2.34-2.97,3.85-.8,1.52-1.43,3.14-1.88,4.87-.43,1.66-.65,3.32-.67,4.98-.02,1.66.23,3.23.76,4.7s1.37,2.76,2.53,3.86,2.72,1.91,4.67,2.41c2.65.68,4.93.4,6.84-.85,1.91-1.25,3.37-3.14,4.38-5.67l8.39,2.17c-.86,2.41-2,4.49-3.44,6.24-1.43,1.75-3.08,3.13-4.95,4.14-1.87,1.01-3.91,1.63-6.13,1.86-2.22.23-4.54.03-6.97-.59-3.05-.79-5.64-2.03-7.75-3.71-2.12-1.68-3.76-3.66-4.94-5.93-1.18-2.27-1.89-4.77-2.13-7.5-.24-2.73.01-5.51.74-8.34.75-2.91,1.9-5.51,3.43-7.83,1.54-2.31,3.38-4.19,5.52-5.64,2.14-1.45,4.54-2.4,7.21-2.85,2.67-.45,5.53-.28,8.58.51,2.17.56,4.14,1.4,5.91,2.53,1.77,1.13,3.26,2.48,4.48,4.07,1.22,1.59,2.1,3.4,2.63,5.42.54,2.02.64,4.21.31,6.56l-8.39-2.17Z"/>
    <path class="cls-1" d="M222.7,405.15l8.87-1.2,2.08,15.48,16.33-2.2-2.08-15.48,8.87-1.2,5.43,40.33-8.87,1.2-2.34-17.4-16.33,2.2,2.34,17.4-8.87,1.19-5.43-40.33Z"/>
    <path class="cls-1" d="M269.3,394.98l8.13-3.74,16.99,36.98-8.13,3.74-16.99-36.98Z"/>
    <path class="cls-1" d="M289.89,385.32l6.65-5.9,30.82,9.16.08-.08-18.11-20.43,6.27-5.56,27,30.45-6.7,5.94-30.74-9.15-.09.08,18.08,20.39-6.27,5.56-27-30.45Z"/>
    <path class="cls-1" d="M323.03,352.23l13.99-27.03,6.68,3.46-9.88,19.08,7.75,4.01,9.06-17.52,6.18,3.2-9.06,17.52,8.86,4.58,10.08-19.49,6.68,3.46-14.2,27.44-36.15-18.7Z"/>
  </g>
  <g xmlns="http://www.w3.org/2000/svg">
    <path class="cls-1" d="M93.82,197.2l5.78-6.83,11.92,10.09,10.64-12.57-11.92-10.09,5.78-6.83,31.06,26.3-5.78,6.83-13.4-11.35-10.64,12.57,13.4,11.35-5.78,6.83-31.06-26.3Z"/>
    <path class="cls-1" d="M182.94,159.61c2.39,4.97,2.78,9.33,1.17,13.1-1.61,3.77-4.86,6.82-9.76,9.18-4.96,2.39-9.39,3.03-13.27,1.92-3.88-1.1-7.03-4.16-9.43-9.16l-10.96-22.81,8.07-3.88,10.96,22.81c.48.99,1.03,1.93,1.67,2.8.63.88,1.4,1.56,2.31,2.05.91.49,1.96.72,3.15.7,1.19-.02,2.61-.43,4.25-1.22,2.88-1.38,4.55-2.98,5.03-4.79.48-1.81.06-4.09-1.26-6.83l-10.96-22.81,8.07-3.88,10.96,22.81Z"/>
    <path class="cls-1" d="M203.73,128.69l12.6.21,9.06,28.14h.11s9.46-27.83,9.46-27.83l12.6.2-.66,40.69-8.38-.14.47-28.84h-.11s-10.44,28.67-10.44,28.67l-6.9-.11-9.51-28.71h-.12s-.46,28.55-.46,28.55l-8.38-.14.66-40.69Z"/>
    <path class="cls-1" d="M288.45,143.08l8.23,4.06-4.38,43.23-8.33-4.12,1.25-9.49-13.64-6.74-6.88,6.71-8.12-4.01,31.88-29.64ZM276.63,165.08l9.46,4.67,2.02-15.66-.1-.05-11.37,11.04Z"/>
    <path class="cls-1" d="M331.02,170.75l5.76,6.77-9.79,30.63.07.09,20.8-17.69,5.43,6.38-31,26.36-5.8-6.82,9.79-30.55-.07-.09-20.76,17.65-5.43-6.38,31.01-26.36Z"/>
  </g>
</g><g transform="translate(467.25,251.76) scale(0.5)"><defs xmlns="http://www.w3.org/2000/svg"><style>.cls-1{fill:#969695;}</style></defs><path xmlns="http://www.w3.org/2000/svg" class="cls-1" d="M173.79,15.31C80.78,15.31,5.11,90.97,5.11,183.98s75.67,168.68,168.68,168.68,168.68-75.67,168.68-168.68S266.8,15.31,173.79,15.31ZM173.79,330.37c-80.72,0-146.39-65.67-146.39-146.39S93.07,37.59,173.79,37.59s146.39,65.67,146.39,146.39-65.67,146.39-146.39,146.39ZM261.71,161.64h-32.69c-4.93,0-8.92,3.99-8.92,8.92v26.84c0,4.93,3.99,8.92,8.92,8.92h32.69c4.93,0,8.92-3.99,8.92-8.92v-26.84c0-4.93-3.99-8.92-8.92-8.92ZM252.79,188.48h-14.85v-8.99h14.85v8.99ZM118.56,161.64h-32.69c-4.93,0-8.92,3.99-8.92,8.92v26.84c0,4.93,3.99,8.92,8.92,8.92h32.69c4.93,0,8.92-3.99,8.92-8.92v-26.84c0-4.93-3.99-8.92-8.92-8.92ZM109.64,188.48h-14.85v-8.99h14.85v8.99ZM173.79,220.29c4.93,0,8.92-3.99,8.92-8.92v-8.45l21.91-10.95c3.02-1.51,4.93-4.6,4.93-7.98s-1.91-6.47-4.93-7.98l-21.91-10.95v-8.45c0-4.93-3.99-8.92-8.92-8.92s-8.92,3.99-8.92,8.92v8.45l-21.91,10.95c-3.02,1.51-4.93,4.6-4.93,7.98s1.91,6.47,4.93,7.98l21.91,10.95v8.45c0,4.93,3.99,8.92,8.92,8.92ZM173.79,180.54l6.89,3.44-6.89,3.44-6.89-3.44,6.89-3.44ZM245.36,216.87c-4.93,0-8.92,3.99-8.92,8.92v16.37h-28.76c-3.45-7.89-11.32-13.42-20.47-13.42h-26.84c-12.32,0-22.34,10.02-22.34,22.34s10.02,22.34,22.34,22.34h26.84c9.15,0,17.02-5.53,20.47-13.42h37.68c4.93,0,8.92-3.99,8.92-8.92v-25.29c0-4.93-3.99-8.92-8.92-8.92ZM187.21,255.58h-26.84c-2.48,0-4.5-2.02-4.5-4.5s2.02-4.5,4.5-4.5h26.84c2.48,0,4.5,2.02,4.5,4.5s-2.02,4.5-4.5,4.5ZM102.21,151.1c4.93,0,8.92-3.99,8.92-8.92v-16.37h28.76c3.45,7.89,11.32,13.42,20.47,13.42h26.84c12.32,0,22.34-10.02,22.34-22.34s-10.02-22.34-22.34-22.34h-26.84c-9.15,0-17.02,5.53-20.47,13.42h-37.68c-4.93,0-8.92,3.99-8.92,8.92v25.29c0,4.93,3.99,8.92,8.92,8.92ZM160.37,112.38h26.84c2.48,0,4.5,2.02,4.5,4.5s-2.02,4.5-4.5,4.5h-26.84c-2.48,0-4.5-2.02-4.5-4.5s2.02-4.5,4.5-4.5Z"/><path xmlns="http://www.w3.org/2000/svg" class="cls-1" d="M56.76,399.23h10.15v41.88h-10.15v-41.88Z"/><path xmlns="http://www.w3.org/2000/svg" class="cls-1" d="M95.47,436.65c-1.52,2.99-5.04,5.16-9.21,5.16-8.09,0-13.14-6.57-13.14-15.72s5.04-15.72,13.14-15.72c4.22,0,7.63,2.17,9.09,5.16v-17.6h9.8v43.17h-9.68v-4.46ZM95.53,425.45c0-5.04-2.29-8.09-6.22-8.09s-6.33,3.34-6.33,8.74,2.23,8.68,6.33,8.68,6.22-3.05,6.22-8.04v-1.29Z"/><path xmlns="http://www.w3.org/2000/svg" class="cls-1" d="M127.14,441.81c-8.97,0-15.9-5.87-15.9-15.72s6.92-15.72,15.78-15.72c9.85,0,14.72,7.1,14.72,15.25v2.64h-21.06c.53,4.17,2.58,6.63,6.45,6.63,2.82,0,4.69-1.29,5.46-3.58h9.03c-1.29,6.51-6.75,10.5-14.49,10.5ZM120.86,423.04h11.79c0-3.05-1.88-5.81-5.63-5.81-3.4,0-5.46,2.11-6.16,5.81Z"/><path xmlns="http://www.w3.org/2000/svg" class="cls-1" d="M166.49,436.71c-1.52,3.34-5.04,5.1-9.62,5.1-6.39,0-10.44-3.46-10.44-8.86,0-6.28,5.04-8.56,11.14-9.21l8.45-.82v-1.23c0-2.76-1.64-4.34-4.52-4.34-2.7,0-4.22,1.58-4.4,3.81h-9.38c.65-6.75,5.87-10.79,14.14-10.79,8.97,0,13.73,4.17,13.73,12.44v9.74c0,3.28.12,5.75.53,8.56h-9.33c-.18-1.64-.29-2.93-.29-4.4ZM166.02,429.73v-1.47l-5.4.65c-2.64.29-4.52,1-4.52,3.4,0,1.99,1.35,3.23,3.75,3.23,3.23,0,6.16-1.99,6.16-5.81Z"/><path xmlns="http://www.w3.org/2000/svg" class="cls-1" d="M200.92,440.64c-2.52.7-4.34.94-6.63.94-6.92,0-10.21-2.7-10.21-9.09v-14.55h-3.99v-6.86h3.99v-7.45h9.68v7.45h6.51v6.86h-6.57v12.55c0,2.52,1.17,3.28,3.52,3.28,1.11,0,2.17-.06,3.7-.41v7.27Z"/><path xmlns="http://www.w3.org/2000/svg" class="cls-1" d="M207.01,398.41h10.15v8.5h-10.15v-8.5ZM207.19,411.07h9.79v30.03h-9.79v-30.03Z"/><path xmlns="http://www.w3.org/2000/svg" class="cls-1" d="M239.1,441.81c-9.44,0-16.01-5.92-16.01-15.72s6.57-15.72,16.01-15.72,15.95,5.92,15.95,15.72-6.57,15.72-15.95,15.72ZM239.1,434.77c4.05,0,6.1-3.23,6.1-8.68s-2.05-8.68-6.1-8.68-6.16,3.23-6.16,8.68,2.11,8.68,6.16,8.68Z"/><path xmlns="http://www.w3.org/2000/svg" class="cls-1" d="M270.88,415.71c1.47-3.05,4.75-5.34,9.27-5.34,6.92,0,11.14,4.22,11.14,11.5v19.24h-9.85v-16.89c0-4.16-1.64-6.28-4.99-6.28-3.05,0-5.46,1.99-5.46,7.1v16.07h-9.79v-30.03h9.68v4.63Z"/></g><g transform="translate(660.785,251.995) scale(0.5)"><defs xmlns="http://www.w3.org/2000/svg"><style>.cls-1{fill:#969695;}</style></defs><path xmlns="http://www.w3.org/2000/svg" class="cls-1" d="M176.92,9.26C83.91,9.26,8.25,84.92,8.25,177.93s75.67,168.68,168.68,168.68,168.68-75.67,168.68-168.68S269.93,9.26,176.92,9.26ZM176.92,324.32c-80.72,0-146.39-65.67-146.39-146.39S96.2,31.54,176.92,31.54s146.39,65.67,146.39,146.39-65.67,146.39-146.39,146.39ZM266.48,230.74h-65.68c-5.44,0-10.57,1.34-15.08,3.7v-102.38c0-8.32,6.77-15.09,15.08-15.09h65.68c4.86,0,8.8-3.94,8.8-8.8s-3.94-8.8-8.8-8.8h-65.68c-9.42,0-17.91,4.01-23.88,10.41-5.97-6.4-14.46-10.41-23.88-10.41h-65.68c-4.86,0-8.8,3.94-8.8,8.8v131.35c0,4.86,3.94,8.8,8.8,8.8h65.68c8.32,0,15.09,6.77,15.09,15.09,0,4.86,3.94,8.8,8.8,8.8s8.8-3.94,8.8-8.8c0-8.32,6.77-15.09,15.08-15.09h65.68c4.86,0,8.8-3.94,8.8-8.8s-3.94-8.8-8.8-8.8ZM168.12,234.43c-4.52-2.36-9.65-3.7-15.09-3.7h-56.88v-113.76h56.88c8.32,0,15.09,6.77,15.09,15.09v102.37ZM153.04,129.23h-41.79c-4.86,0-8.8,3.94-8.8,8.8s3.94,8.8,8.8,8.8h41.79c4.86,0,8.8-3.94,8.8-8.8s-3.94-8.8-8.8-8.8ZM153.04,165.06h-41.79c-4.86,0-8.8,3.94-8.8,8.8s3.94,8.8,8.8,8.8h41.79c4.86,0,8.8-3.94,8.8-8.8s-3.94-8.8-8.8-8.8ZM153.04,200.88h-41.79c-4.86,0-8.8,3.94-8.8,8.8s3.94,8.8,8.8,8.8h41.79c4.86,0,8.8-3.94,8.8-8.8s-3.94-8.8-8.8-8.8ZM287.09,209.8l-20.14-20.14c3.47-5.68,5.48-12.35,5.48-19.49,0-20.66-16.81-37.47-37.47-37.47s-37.47,16.81-37.47,37.47,16.81,37.47,37.47,37.47c7.17,0,13.87-2.03,19.57-5.53l20.13,20.13c1.72,1.72,3.97,2.58,6.22,2.58s4.5-.86,6.22-2.58c3.44-3.44,3.44-9.01,0-12.44ZM234.96,190.05c-10.96,0-19.88-8.92-19.88-19.88s8.92-19.88,19.88-19.88,19.88,8.92,19.88,19.88-8.92,19.88-19.88,19.88Z"/><path xmlns="http://www.w3.org/2000/svg" class="cls-1" d="M32.91,393.18h10.15v34.02h20.82v7.86h-30.97v-41.88Z"/><path xmlns="http://www.w3.org/2000/svg" class="cls-1" d="M70.39,392.36h10.15v8.5h-10.15v-8.5ZM70.56,405.03h9.8v30.03h-9.8v-30.03Z"/><path xmlns="http://www.w3.org/2000/svg" class="cls-1" d="M106.05,434.59c-2.52.7-4.34.94-6.63.94-6.92,0-10.21-2.7-10.21-9.09v-14.55h-3.99v-6.86h3.99v-7.45h9.68v7.45h6.51v6.86h-6.57v12.55c0,2.52,1.17,3.28,3.52,3.28,1.11,0,2.17-.06,3.7-.41v7.27Z"/><path xmlns="http://www.w3.org/2000/svg" class="cls-1" d="M125.69,435.76c-8.97,0-15.9-5.87-15.9-15.72s6.92-15.72,15.78-15.72c9.85,0,14.72,7.1,14.72,15.25v2.64h-21.06c.53,4.17,2.58,6.63,6.45,6.63,2.82,0,4.69-1.29,5.46-3.58h9.03c-1.29,6.51-6.75,10.5-14.49,10.5ZM119.42,416.99h11.79c0-3.05-1.88-5.81-5.63-5.81-3.4,0-5.46,2.11-6.16,5.81Z"/><path xmlns="http://www.w3.org/2000/svg" class="cls-1" d="M167.28,413.88c-1.06-.18-2.05-.23-3.17-.23-4.46,0-7.86,2.64-7.86,8.27v13.14h-9.8v-30.03h9.68v6.39c1.52-4.46,4.75-6.86,8.97-6.86.82,0,1.64.06,2.17.29v9.03Z"/><path xmlns="http://www.w3.org/2000/svg" class="cls-1" d="M190.62,430.66c-1.52,3.34-5.04,5.1-9.62,5.1-6.39,0-10.44-3.46-10.44-8.86,0-6.28,5.04-8.56,11.14-9.21l8.45-.82v-1.23c0-2.76-1.64-4.34-4.52-4.34-2.7,0-4.22,1.58-4.4,3.81h-9.38c.65-6.75,5.87-10.79,14.14-10.79,8.97,0,13.72,4.17,13.72,12.44v9.74c0,3.28.12,5.75.53,8.56h-9.33c-.18-1.64-.29-2.93-.29-4.4ZM190.15,423.68v-1.47l-5.4.65c-2.64.29-4.52,1-4.52,3.4,0,1.99,1.35,3.23,3.75,3.23,3.23,0,6.16-1.99,6.16-5.81Z"/><path xmlns="http://www.w3.org/2000/svg" class="cls-1" d="M225.05,434.59c-2.52.7-4.34.94-6.63.94-6.92,0-10.21-2.7-10.21-9.09v-14.55h-3.99v-6.86h3.99v-7.45h9.68v7.45h6.51v6.86h-6.57v12.55c0,2.52,1.17,3.28,3.52,3.28,1.11,0,2.17-.06,3.7-.41v7.27Z"/><path xmlns="http://www.w3.org/2000/svg" class="cls-1" d="M250.91,435.06v-4.63c-1.41,3.05-4.75,5.34-9.09,5.34-6.8,0-10.85-4.22-10.85-11.5v-19.24h9.91v17.01c0,4.17,1.52,6.16,4.69,6.16,2.88,0,5.16-2.05,5.16-7.1v-16.07h9.91v30.03h-9.74Z"/><path xmlns="http://www.w3.org/2000/svg" class="cls-1" d="M289.5,413.88c-1.06-.18-2.05-.23-3.17-.23-4.46,0-7.86,2.64-7.86,8.27v13.14h-9.8v-30.03h9.68v6.39c1.52-4.46,4.75-6.86,8.97-6.86.82,0,1.64.06,2.17.29v9.03Z"/><path xmlns="http://www.w3.org/2000/svg" class="cls-1" d="M308.38,435.76c-8.97,0-15.9-5.87-15.9-15.72s6.92-15.72,15.78-15.72c9.85,0,14.72,7.1,14.72,15.25v2.64h-21.06c.53,4.17,2.58,6.63,6.45,6.63,2.82,0,4.69-1.29,5.46-3.58h9.03c-1.29,6.51-6.75,10.5-14.49,10.5ZM302.11,416.99h11.79c0-3.05-1.88-5.81-5.63-5.81-3.4,0-5.46,2.11-6.16,5.81Z"/><path xmlns="http://www.w3.org/2000/svg" class="cls-1" d="M74.11,505.43v-41.88h19.47c10.21,0,16.31,4.69,16.31,13.73,0,6.22-3.64,10.21-8.27,12.08l9.62,16.07h-10.91l-8.45-14.49h-7.86v14.49h-9.91ZM92.3,483.15c5.34,0,7.62-1.99,7.62-5.87s-2.29-5.92-7.62-5.92h-8.27v11.79h8.27Z"/><path xmlns="http://www.w3.org/2000/svg" class="cls-1" d="M130.53,506.14c-8.97,0-15.9-5.87-15.9-15.72s6.92-15.72,15.78-15.72c9.85,0,14.72,7.1,14.72,15.25v2.64h-21.06c.53,4.17,2.58,6.63,6.45,6.63,2.82,0,4.69-1.29,5.46-3.58h9.03c-1.29,6.51-6.75,10.5-14.49,10.5ZM124.26,487.37h11.79c0-3.05-1.88-5.81-5.63-5.81-3.4,0-5.46,2.11-6.16,5.81Z"/><path xmlns="http://www.w3.org/2000/svg" class="cls-1" d="M147.13,475.4h9.85l7.21,20.53h.12l7.1-20.53h9.62l-11.55,30.03h-10.68l-11.67-30.03Z"/><path xmlns="http://www.w3.org/2000/svg" class="cls-1" d="M185.6,462.73h10.15v8.51h-10.15v-8.51ZM185.78,475.4h9.8v30.03h-9.8v-30.03Z"/><path xmlns="http://www.w3.org/2000/svg" class="cls-1" d="M217.57,506.14c-8.97,0-15.9-5.87-15.9-15.72s6.92-15.72,15.78-15.72c9.85,0,14.72,7.1,14.72,15.25v2.64h-21.06c.53,4.17,2.58,6.63,6.45,6.63,2.82,0,4.69-1.29,5.46-3.58h9.03c-1.29,6.51-6.75,10.5-14.49,10.5ZM211.29,487.37h11.79c0-3.05-1.88-5.81-5.63-5.81-3.4,0-5.46,2.11-6.16,5.81Z"/><path xmlns="http://www.w3.org/2000/svg" class="cls-1" d="M268.24,495.58h.12l5.28-20.18h9.5l-9.33,30.03h-9.85l-5.04-19.47h-.12l-5.1,19.47h-9.85l-9.33-30.03h9.74l5.28,20.18h.18l4.81-20.18h8.8l4.93,20.18Z"/></g><g transform="translate(856.8299999999999,251.76) scale(0.5)"><defs xmlns="http://www.w3.org/2000/svg"><style>.cls-1{fill:#969695;}</style></defs><path xmlns="http://www.w3.org/2000/svg" class="cls-1" d="M175.7,9.26C82.69,9.26,7.03,84.92,7.03,177.93s75.67,168.68,168.68,168.68,168.68-75.67,168.68-168.68S268.71,9.26,175.7,9.26ZM175.7,324.32c-80.72,0-146.39-65.67-146.39-146.39S94.98,31.54,175.7,31.54s146.39,65.67,146.39,146.39-65.67,146.39-146.39,146.39ZM169.72,257.33h-25.19c-2.1,0-3.8-1.71-3.8-3.8V102.33c0-2.1,1.71-3.8,3.8-3.8h25.19c4.81,0,8.72-3.9,8.72-8.72s-3.9-8.72-8.72-8.72h-25.19c-4.68,0-9,1.54-12.52,4.12-3.52-2.58-7.84-4.12-12.52-4.12h-25.19c-4.81,0-8.72,3.9-8.72,8.72s3.9,8.72,8.72,8.72h25.19c2.1,0,3.8,1.71,3.8,3.8v151.19c0,2.1-1.71,3.8-3.8,3.8h-25.19c-4.81,0-8.72,3.9-8.72,8.72s3.9,8.72,8.72,8.72h25.19c4.68,0,9-1.54,12.52-4.12,3.52,2.58,7.84,4.12,12.52,4.12h25.19c4.81,0,8.72-3.9,8.72-8.72s-3.9-8.72-8.72-8.72ZM270.79,121.67h-48.69c-.1,0-.2-.02-.31-.02s-.21.01-.31.02h-48.69c-4.81,0-8.72,3.9-8.72,8.72v11.31c0,4.81,3.9,8.72,8.72,8.72s8.72-3.9,8.72-8.72v-2.59h31.56v95.64h-10.13c-4.81,0-8.72,3.9-8.72,8.72s3.9,8.72,8.72,8.72h18.76s.06,0,.08,0,.06,0,.08,0h18.76c4.81,0,8.72-3.9,8.72-8.72s-3.9-8.72-8.72-8.72h-10.13v-95.64h31.57v2.59c0,4.81,3.9,8.72,8.72,8.72s8.72-3.9,8.72-8.72v-11.31c0-4.81-3.9-8.72-8.72-8.72Z"/><path xmlns="http://www.w3.org/2000/svg" class="cls-1" d="M95.42,405.2h-.12l-7.1,29.86h-11.03l-11.38-41.88h10.44l7.21,29.68h.18l7.04-29.68h9.97l7.04,29.68h.12l7.27-29.68h9.91l-11.44,41.88h-10.97l-7.16-29.86Z"/><path xmlns="http://www.w3.org/2000/svg" class="cls-1" d="M149.02,413.88c-1.06-.18-2.05-.23-3.17-.23-4.46,0-7.86,2.64-7.86,8.27v13.14h-9.79v-30.03h9.68v6.39c1.53-4.46,4.75-6.86,8.97-6.86.82,0,1.64.06,2.17.29v9.03Z"/><path xmlns="http://www.w3.org/2000/svg" class="cls-1" d="M154.24,392.36h10.15v8.5h-10.15v-8.5ZM154.41,405.03h9.8v30.03h-9.8v-30.03Z"/><path xmlns="http://www.w3.org/2000/svg" class="cls-1" d="M189.9,434.59c-2.52.7-4.34.94-6.63.94-6.92,0-10.21-2.7-10.21-9.09v-14.55h-3.99v-6.86h3.99v-7.45h9.68v7.45h6.51v6.86h-6.57v12.55c0,2.52,1.17,3.28,3.52,3.28,1.11,0,2.17-.06,3.7-.41v7.27Z"/><path xmlns="http://www.w3.org/2000/svg" class="cls-1" d="M195.99,392.36h10.15v8.5h-10.15v-8.5ZM196.17,405.03h9.8v30.03h-9.8v-30.03Z"/><path xmlns="http://www.w3.org/2000/svg" class="cls-1" d="M223.74,409.66c1.47-3.05,4.75-5.34,9.27-5.34,6.92,0,11.14,4.22,11.14,11.5v19.24h-9.85v-16.89c0-4.16-1.64-6.28-4.99-6.28-3.05,0-5.45,1.99-5.45,7.1v16.07h-9.8v-30.03h9.68v4.63Z"/><path xmlns="http://www.w3.org/2000/svg" class="cls-1" d="M272.3,428.78c-1.47,2.93-4.75,5.28-9.09,5.28-8.21,0-13.26-6.22-13.26-14.9s5.04-14.84,13.26-14.84c4.34,0,7.74,2.35,9.21,5.22v-4.52h9.68v26.45c0,10.03-6.51,14.72-16.13,14.72-8.86,0-14.43-3.75-15.48-9.85h9.68c.7,2.29,2.76,3.23,5.75,3.23,3.81,0,6.39-1.94,6.39-6.63v-4.17ZM272.53,418.57c0-4.52-2.58-7.33-6.39-7.33-4.05,0-6.33,2.99-6.33,7.92s2.29,7.98,6.33,7.98c3.81,0,6.39-2.82,6.39-7.45v-1.12Z"/></g><text x="515.805" y="539.9300000000001" text-anchor="start" font-family="Arial, sans-serif" font-size="12" fill="#00000"></text></svg>